# xmcd CD database file
#
# Track frame offsets:
#	150
#	37094
#	78454
#	106561
#	134734
#	168412
#	199056
#	233259
#	261248
#	280269
#	317299
#	330268
#
# Disc length: 4677 seconds
#
# Revision: 0
# Processed by: cddbd v1.5.2PL0 Copyright (c) Steve Scherf et al.
# Submitted via: CDex 1.51
#
DISCID=9812430c
DTITLE=Charles Mingus - Three Classics CD2
DYEAR=1959
DGENRE=Jazz
TTITLE0=Fables Of Faubus
TTITLE1=Pussy Cat Dues
TTITLE2=Jelly Roll
TTITLE3=Slop
TTITLE4=Diane
TTITLE5=Song With Orange
TTITLE6=Things Ain't What They Used To Be
TTITLE7=Far Wells Mill Valley
TTITLE8=New Now Know How
TTITLE9=Mood Indigo
TTITLE10=Put Me In That Dungeon
TTITLE11=Strollin'
EXTD=YEAR: 1959
EXTT0=
EXTT1=
EXTT2=
EXTT3=
EXTT4=
EXTT5=
EXTT6=
EXTT7=
EXTT8=
EXTT9=
EXTT10=
EXTT11=
PLAYORDER=
